<svg xmlns="http://www.w3.org/2000/svg" width="101.748" height="20.496" viewBox="0 0 101.748 20.496">
  <path fill="#fff" d="M7.084 20.496a7.208 7.208 0 0 1-3.656-.924A6.584 6.584 0 0 1 .91 17.01 7.683 7.683 0 0 1 0 13.216a7.683 7.683 0 0 1 .91-3.794A6.584 6.584 0 0 1 3.428 6.86a7.208 7.208 0 0 1 3.654-.924 6.892 6.892 0 0 1 4.326 1.344 6.066 6.066 0 0 1 2.254 3.64h-3.106a2.922 2.922 0 0 0-1.228-1.792 3.9 3.9 0 0 0-2.24-.644 3.892 3.892 0 0 0-2.016.546 3.968 3.968 0 0 0-1.484 1.6 5.451 5.451 0 0 0-.56 2.59 5.451 5.451 0 0 0 .56 2.59 4.069 4.069 0 0 0 1.48 1.606 3.818 3.818 0 0 0 2.016.56 3.9 3.9 0 0 0 2.24-.644 2.932 2.932 0 0 0 1.232-1.82h3.108a6.013 6.013 0 0 1-2.236 3.612 6.855 6.855 0 0 1-4.344 1.372Zm16.3 0a7.03 7.03 0 0 1-3.57-.91 6.641 6.641 0 0 1-2.506-2.548 7.648 7.648 0 0 1-.924-3.822 7.557 7.557 0 0 1 .938-3.822 6.711 6.711 0 0 1 2.534-2.548 7.051 7.051 0 0 1 3.556-.91 7.03 7.03 0 0 1 3.57.91 6.742 6.742 0 0 1 2.52 2.548 7.557 7.557 0 0 1 .938 3.822 7.557 7.557 0 0 1-.938 3.822 6.711 6.711 0 0 1-2.538 2.548 7.106 7.106 0 0 1-3.584.91Zm0-2.548a3.843 3.843 0 0 0 1.974-.532 3.9 3.9 0 0 0 1.47-1.582 5.517 5.517 0 0 0 .56-2.618 5.636 5.636 0 0 0-.546-2.618 3.81 3.81 0 0 0-1.456-1.582 3.843 3.843 0 0 0-1.974-.532 3.843 3.843 0 0 0-1.974.532 3.9 3.9 0 0 0-1.47 1.582 5.517 5.517 0 0 0-.56 2.618 5.517 5.517 0 0 0 .56 2.618 3.935 3.935 0 0 0 1.456 1.582 3.769 3.769 0 0 0 1.956.532Zm10.272 2.212V6.272h2.632l.224 2.436a4.835 4.835 0 0 1 1.89-2.03 5.5 5.5 0 0 1 2.87-.742 5.115 5.115 0 0 1 3.962 1.568 6.7 6.7 0 0 1 1.442 4.676v7.98h-2.94v-7.672q0-4.032-3.3-4.032a3.543 3.543 0 0 0-2.73 1.176 4.8 4.8 0 0 0-1.078 3.36v7.168Zm17.22 0V8.76h-1.988V6.268h1.988V4.26A4.137 4.137 0 0 1 52.01.998a4.709 4.709 0 0 1 3.206-.994h1.456v2.52h-1.008a1.976 1.976 0 0 0-1.4.406 1.834 1.834 0 0 0-.42 1.358v1.988h3.192V8.76h-3.192v11.4Zm8.988 0V0h2.964v20.16Zm11.872.336a5.115 5.115 0 0 1-3.962-1.568 6.7 6.7 0 0 1-1.446-4.676v-7.98h2.968v7.672q0 4.032 3.3 4.032A3.5 3.5 0 0 0 75.32 16.8a4.839 4.839 0 0 0 1.064-3.36V6.272h2.968V20.16H76.72l-.224-2.436a4.835 4.835 0 0 1-1.89 2.03 5.5 5.5 0 0 1-2.87.742Zm10.052-.336 4.928-6.944-4.928-6.944h3.164l3.724 5.32 3.7-5.32h3.192l-4.932 6.944 4.928 6.944h-3.192l-3.7-5.32-3.72 5.32Z"/>
  <path fill="#dd6154" d="M99.844 20.328a1.878 1.878 0 0 1-1.386-.546 1.778 1.778 0 0 1-.546-1.3 1.81 1.81 0 0 1 .546-1.33 1.878 1.878 0 0 1 1.386-.546 1.831 1.831 0 0 1 1.372.546 1.834 1.834 0 0 1 .532 1.33 1.8 1.8 0 0 1-.532 1.3 1.831 1.831 0 0 1-1.372.546Z"/>
</svg>