<svg xmlns="http://www.w3.org/2000/svg" width="20.516" height="11.999" viewBox="0 0 20.516 11.999">
  <path fill="#f2e9e0" d="M5.715 9.428H0V2.571h5.715L10 0v12Z"/>
  <path fill="#f2e9e0" d="m15.5922224 11.1844161-.70710679-.70710678c1.6475588-1.6475588 2.3864854-3.27036886 2.20122341-4.83024642a6.191 6.191 0 0 0-2.74781695-3.94565584l.5204306-.854185a7.135 7.135 0 0 1 3.22087138 4.6803398c.22132442 1.88161114-.61589 3.7851426-2.48760165 5.65685424Z"/>
  <path fill="#f2e9e0" d="m12.663132 9.4919604-.70710679-.70710677a3.732 3.732 0 0 0 1.37956533-2.98469773 3.858 3.858 0 0 0-1.70271313-2.4395184l.5211377-.85347788a4.817 4.817 0 0 1 2.17576757 3.16571706 4.652 4.652 0 0 1-1.66665069 3.81908373Z"/>
</svg>